<svg xmlns="http://www.w3.org/2000/svg" xmlns:xlink="http://www.w3.org/1999/xlink" width="500" zoomAndPan="magnify" viewBox="0 0 375 374.999991" height="500" preserveAspectRatio="xMidYMid meet" version="1.0"><defs><g/><clipPath id="0093085ac0"><rect x="0" width="227" y="0" height="204"/></clipPath><clipPath id="e542b4f5f5"><rect x="0" width="110" y="0" height="204"/></clipPath></defs><g transform="matrix(1, 0, 0, 1, 63, 63)"><g clip-path="url(#0093085ac0)"><g fill="#1800ad" fill-opacity="1"><g transform="translate(19.894972, 142.797547)"><g><path d="M 148.890625 17.15625 C 154.804688 17.15625 160.285156 17.625 165.328125 18.5625 C 170.378906 19.5 175.15625 20.941406 179.65625 22.890625 C 184.164062 24.847656 188.535156 27.335938 192.765625 30.359375 C 197.003906 33.390625 201.207031 36.988281 205.375 41.15625 L 204.578125 42.171875 C 200.671875 38.804688 196.226562 35.976562 191.25 33.6875 C 186.28125 31.40625 181.101562 29.625 175.71875 28.34375 C 170.34375 27.0625 164.929688 26.148438 159.484375 25.609375 C 154.035156 25.078125 148.820312 24.8125 143.84375 24.8125 C 136.175781 24.8125 128.644531 25.28125 121.25 26.21875 C 113.851562 27.164062 106.390625 28.242188 98.859375 29.453125 L 86.140625 31.46875 C 78.742188 32.675781 71.3125 33.75 63.84375 34.6875 C 56.382812 35.632812 48.820312 36.109375 41.15625 36.109375 C 34.03125 36.109375 27.035156 35.097656 20.171875 33.078125 C 13.316406 31.066406 7.195312 28.078125 1.8125 24.109375 C -3.5625 20.140625 -7.894531 15.160156 -11.1875 9.171875 C -14.488281 3.191406 -16.140625 -3.765625 -16.140625 -11.703125 C -16.140625 -16.546875 -15.46875 -21.285156 -14.125 -25.921875 C -12.78125 -30.566406 -10.828125 -34.835938 -8.265625 -38.734375 C -5.710938 -42.640625 -2.585938 -46.140625 1.109375 -49.234375 C 4.804688 -52.328125 8.941406 -54.742188 13.515625 -56.484375 L 13.515625 -86.34375 C 13.515625 -89.039062 13.007812 -91.597656 12 -94.015625 C 10.988281 -96.429688 9.070312 -98.046875 6.25 -98.859375 L 32.890625 -98.859375 C 29.929688 -98.046875 27.976562 -96.429688 27.03125 -94.015625 C 26.09375 -91.597656 25.625 -89.039062 25.625 -86.34375 L 25.625 -59.515625 C 27.101562 -59.921875 28.582031 -60.191406 30.0625 -60.328125 C 31.539062 -60.460938 33.019531 -60.53125 34.5 -60.53125 C 41.757812 -60.53125 48.617188 -59.351562 55.078125 -57 C 61.535156 -54.644531 67.316406 -50.910156 72.421875 -45.796875 L 72.421875 -86.546875 C 72.421875 -89.234375 71.914062 -91.753906 70.90625 -94.109375 C 69.90625 -96.460938 67.992188 -98.046875 65.171875 -98.859375 L 91.796875 -98.859375 C 88.835938 -98.046875 86.882812 -96.460938 85.9375 -94.109375 C 85 -91.753906 84.53125 -89.234375 84.53125 -86.546875 L 84.53125 -12.515625 C 84.53125 -9.816406 85.066406 -7.253906 86.140625 -4.828125 C 87.222656 -2.410156 89.109375 -0.800781 91.796875 0 L 65.171875 0 C 67.992188 -0.800781 69.90625 -2.445312 70.90625 -4.9375 C 71.914062 -7.425781 72.421875 -10.015625 72.421875 -12.703125 L 72.421875 -43.578125 C 67.847656 -48.015625 62.671875 -51.546875 56.890625 -54.171875 C 51.109375 -56.796875 44.988281 -58.109375 38.53125 -58.109375 C 36.25 -58.109375 34.0625 -58.070312 31.96875 -58 C 29.882812 -57.9375 27.769531 -57.632812 25.625 -57.09375 L 25.625 -12.515625 C 25.625 -9.816406 26.128906 -7.253906 27.140625 -4.828125 C 28.148438 -2.410156 30.066406 -0.800781 32.890625 0 L 6.25 0 C 9.070312 -0.800781 10.988281 -2.445312 12 -4.9375 C 13.007812 -7.425781 13.515625 -10.015625 13.515625 -12.703125 L 13.515625 -53.0625 C 5.046875 -48.757812 -0.9375 -42.640625 -4.4375 -34.703125 C -7.9375 -26.765625 -9.6875 -18.289062 -9.6875 -9.28125 C -9.6875 -1.882812 -8.171875 4.566406 -5.140625 10.078125 C -2.117188 15.597656 1.84375 20.171875 6.75 23.796875 C 11.664062 27.429688 17.316406 30.125 23.703125 31.875 C 30.085938 33.625 36.578125 34.5 43.171875 34.5 C 51.242188 34.5 59.078125 33.789062 66.671875 32.375 C 74.273438 30.96875 81.910156 29.320312 89.578125 27.4375 L 102.484375 24.203125 C 110.148438 22.328125 117.78125 20.679688 125.375 19.265625 C 132.976562 17.859375 140.816406 17.15625 148.890625 17.15625 Z M 148.890625 17.15625 "/></g></g></g></g></g><g transform="matrix(1, 0, 0, 1, 166, 108)"><g clip-path="url(#e542b4f5f5)"><g fill="#1800ad" fill-opacity="1"><g transform="translate(2.200459, 142.339487)"><g><path d="M 103.296875 -59.515625 C 100.609375 -58.710938 98.757812 -57.265625 97.75 -55.171875 C 96.738281 -53.085938 96.234375 -50.769531 96.234375 -48.21875 L 96.234375 0.8125 C 95.160156 -0.800781 93.78125 -2.28125 92.09375 -3.625 C 90.414062 -4.976562 88.566406 -5.65625 86.546875 -5.65625 C 84.398438 -5.65625 82.148438 -5.316406 79.796875 -4.640625 C 77.441406 -3.960938 75.050781 -3.21875 72.625 -2.40625 C 70.207031 -1.601562 67.753906 -0.863281 65.265625 -0.1875 C 62.773438 0.476562 60.1875 0.8125 57.5 0.8125 C 49.5625 0.8125 42.5 -0.96875 36.3125 -4.53125 C 30.125 -8.101562 24.878906 -12.742188 20.578125 -18.453125 C 16.273438 -24.171875 13.015625 -30.59375 10.796875 -37.71875 C 8.578125 -44.851562 7.46875 -51.984375 7.46875 -59.109375 C 7.46875 -66.503906 8.773438 -73.566406 11.390625 -80.296875 C 14.015625 -87.023438 17.644531 -92.910156 22.28125 -97.953125 C 26.925781 -102.992188 32.441406 -107.023438 38.828125 -110.046875 C 45.222656 -113.078125 52.253906 -114.59375 59.921875 -114.59375 C 61.128906 -114.59375 62.335938 -114.523438 63.546875 -114.390625 C 64.753906 -114.253906 65.96875 -114.117188 67.1875 -113.984375 L 71.828125 -113.578125 C 73.035156 -113.453125 74.242188 -113.320312 75.453125 -113.1875 C 76.660156 -113.050781 77.875 -112.984375 79.09375 -112.984375 C 80.96875 -112.984375 82.878906 -113.25 84.828125 -113.78125 C 86.785156 -114.320312 88.164062 -115.601562 88.96875 -117.625 L 93.40625 -93.203125 C 92.332031 -96.296875 90.753906 -99.050781 88.671875 -101.46875 C 86.585938 -103.894531 84.195312 -105.945312 81.5 -107.625 C 78.8125 -109.3125 75.882812 -110.625 72.71875 -111.5625 C 69.5625 -112.507812 66.4375 -112.984375 63.34375 -112.984375 C 55.007812 -112.984375 48.117188 -111.367188 42.671875 -108.140625 C 37.222656 -104.910156 32.914062 -100.671875 29.75 -95.421875 C 26.59375 -90.179688 24.375 -84.195312 23.09375 -77.46875 C 21.820312 -70.75 21.1875 -63.820312 21.1875 -56.6875 C 21.1875 -50.769531 21.925781 -44.582031 23.40625 -38.125 C 24.882812 -31.675781 27.171875 -25.726562 30.265625 -20.28125 C 33.359375 -14.832031 37.425781 -10.359375 42.46875 -6.859375 C 47.507812 -3.359375 53.53125 -1.609375 60.53125 -1.609375 C 63.21875 -1.609375 65.972656 -2.046875 68.796875 -2.921875 C 71.617188 -3.796875 74.171875 -5.070312 76.453125 -6.75 C 78.742188 -8.4375 80.59375 -10.488281 82 -12.90625 C 83.414062 -15.332031 84.125 -18.023438 84.125 -20.984375 L 84.125 -47.8125 C 84.125 -50.5 83.585938 -52.953125 82.515625 -55.171875 C 81.441406 -57.390625 79.554688 -58.835938 76.859375 -59.515625 Z M 103.296875 -59.515625 "/></g></g></g></g></g></svg>