<?xml version="1.0" standalone="no"?>
<!DOCTYPE svg PUBLIC "-//W3C//DTD SVG 20010904//EN"
 "http://www.w3.org/TR/2001/REC-SVG-20010904/DTD/svg10.dtd">
<svg version="1.0" xmlns="http://www.w3.org/2000/svg"
 width="360.000000pt" height="360.000000pt" viewBox="0 0 360.000000 360.000000"
 preserveAspectRatio="xMidYMid meet">

<g transform="translate(0.000000,360.000000) scale(0.100000,-0.100000)"
fill="#000000" stroke="none">
<path d="M0 1800 l0 -1800 1800 0 1800 0 0 1800 0 1800 -1800 0 -1800 0 0
-1800z m1770 0 c0 -550 -2 -1000 -4 -1000 -7 0 -171 93 -211 119 l-40 27 -3
427 -2 427 -115 0 -115 0 0 -335 c0 -200 -4 -335 -9 -335 -15 0 -142 145 -179
203 -18 29 -42 81 -52 116 -19 60 -20 95 -20 640 l0 576 103 19 c56 10 114 20
130 23 l27 6 0 -327 0 -326 115 0 115 0 0 348 0 348 113 21 c61 11 120 21 130
22 16 1 17 -53 17 -999z m429 935 c196 -36 362 -67 369 -70 9 -3 12 -58 12
-225 l0 -220 -130 0 -130 0 0 115 c0 111 -1 115 -22 119 -70 16 -201 37 -204
33 -2 -2 -3 -278 -2 -613 l3 -609 91 90 c127 126 134 142 134 310 l0 135 -80
0 -80 0 0 130 0 130 210 0 210 0 0 -274 c0 -245 -2 -281 -20 -338 -58 -188
-283 -400 -638 -602 -45 -25 -84 -46 -87 -46 -3 0 -5 450 -5 1000 0 550 3
1000 6 1000 4 0 167 -29 363 -65z"/>
</g>
</svg>
